<svg enable-background="new 0 0 448 512" viewBox="0 0 448 512" xmlns="http://www.w3.org/2000/svg"><path d="m190.4 116.5c-11.3-.5-21.6 8-22.3 19.6-.8 11.6 8 21.6 19.5 21.6 69.6 4.5 129.8 64.8 134.4 134.4.7 11.1 10 19.6 20.9 19.6.5 0 .9 0 1.4-.1 11.6-.7 20.3-10.7 19.6-22.3-5.8-89.1-83.6-166.9-173.5-172.8zm5.6-84.1c-15.5 0-28 12.5-28 28s12.5 28 28 28c108.1 0 196 87.9 196 196 0 15.5 12.5 28 28 28s28-12.5 28-28c0-138.9-113.1-252-252-252zm-45.2 198.5c-12.8-2.5-24.8 7.9-24.8 20.8v44.1c0 9 6.2 16.1 14.7 18.5 15.9 5.9 27.4 21.3 27.4 38.6 0 23.2-18.8 41.2-42 41.2s-42-18.8-42-41.2v-215.5c0-11.6-9.4-20.2-21-20.2h-42c-11.6-.8-21 8.7-21 20.2v216.2c0 78.3 71.9 140.2 153.1 123.1 47.6-10.1 86-48.6 96.1-96 15.1-71.7-32.5-136.7-98.5-149.8z" fill="#aeb8ca"/></svg>