<svg enable-background="new 0 0 24 24" viewBox="0 0 24 24" xmlns="http://www.w3.org/2000/svg"><g fill="#aeb8c9"><path d="m21 2h-3.3v-.8c0-.5-.4-.8-.8-.8-.5 0-.8.4-.8.8v.8h-8.2v-.8c0-.5-.4-.8-.8-.8-.5 0-.8.4-.8.8v.8h-3.3c-1.4 0-2.5 1.1-2.5 2.5v16.4c0 1.4 1.1 2.5 2.5 2.5h18c1.4 0 2.5-1.1 2.5-2.5v-16.4c0-1.4-1.1-2.5-2.5-2.5zm-18 1.6h18c.5 0 .8.4.8.8v2.5h-19.7v-2.4c0-.5.4-.9.9-.9zm18 18.1h-18c-.5 0-.8-.4-.8-.8v-12.3h19.7v12.3c0 .4-.4.8-.9.8z"/><path d="m16.6 11.2-5.2 4.4-1.9-1.9c-.3-.3-.8-.3-1.2 0-.3.3-.3.8 0 1.1l2.5 2.5c.3.3.8.3 1.1 0l5.8-4.9c.4-.3.4-.8.1-1.2s-.8-.3-1.2 0z"/></g></svg>