<svg enable-background="new 0 0 640 512" viewBox="0 0 640 512" xmlns="http://www.w3.org/2000/svg"><path d="m524.5 69.8c-.2-.3-.4-.6-.8-.7-38.1-17.5-78.4-30-119.7-37.1-.8-.1-1.5.2-1.9.9-5.5 9.9-10.5 20.2-14.9 30.6-44.6-6.8-89.9-6.8-134.4 0-4.5-10.5-9.5-20.7-15.1-30.6-.4-.7-1.2-1-1.9-.9-41.3 7.1-81.6 19.6-119.7 37.1-.3.1-.6.4-.8.7-76.2 113.9-97.1 224.9-86.9 334.6.1.5.3 1 .8 1.4 44.4 32.9 94 58 146.8 74.2.8.2 1.6 0 2.1-.7 11.3-15.4 21.4-31.8 30-48.8.5-.9.1-2-.8-2.5-.1 0-.1-.1-.2-.1-15.8-6.1-31.2-13.4-45.9-21.9-.9-.5-1.2-1.7-.7-2.6.1-.2.3-.4.5-.5 3.1-2.3 6.2-4.7 9.1-7.1.5-.4 1.3-.5 1.9-.3 96.2 43.9 200.4 43.9 295.5 0 .6-.3 1.4-.2 1.9.2 2.9 2.4 6 4.9 9.1 7.2.8.6 1 1.8.4 2.6-.1.2-.3.4-.5.5-14.7 8.6-30 15.9-45.9 21.8-1 .4-1.5 1.5-1.1 2.4 0 .1.1.1.1.2 8.8 17 18.8 33.3 30 48.8.5.7 1.3.9 2.1.7 52.9-16.2 102.6-41.3 147.1-74.2.4-.3.7-.8.8-1.4 12.2-126.7-20.6-236.8-87-334.5zm-302 267.8c-29 0-52.8-26.6-52.8-59.2s23.4-59.2 52.8-59.2c29.7 0 53.3 26.8 52.8 59.2 0 32.6-23.4 59.2-52.8 59.2zm195.4 0c-29 0-52.8-26.6-52.8-59.2s23.4-59.2 52.8-59.2c29.7 0 53.3 26.8 52.8 59.2 0 32.6-23.2 59.2-52.8 59.2z" fill="#aeb8ca"/></svg>