<svg enable-background="new 0 0 448 436.8" viewBox="0 0 448 436.8" xmlns="http://www.w3.org/2000/svg"><path d="m154.4 343.4c0 1.7-2 3.1-4.4 3.1-2.8.3-4.8-1.1-4.8-3.1 0-1.7 2-3.1 4.4-3.1 2.7-.2 4.8 1.1 4.8 3.1zm-26.2-3.9c-.6 1.7 1.1 3.7 3.7 4.1 2.2.8 4.8 0 5.2-1.7.5-1.7-1.1-3.7-3.7-4.4-2.2-.5-4.6.3-5.2 2zm37.4-1.4c-2.4.6-4.1 2.2-3.9 4.1.3 1.7 2.4 2.8 5 2.2 2.4-.6 4.1-2.2 3.9-3.9-.3-1.5-2.6-2.7-5-2.4zm55.7-324.5c-117.5 0-207.3 89.2-207.3 206.7 0 93.9 59.1 174.3 143.5 202.5 10.9 2 14.6-4.8 14.6-10.2s-.3-34.2-.3-52c0 0-59.3 12.7-71.7-25.2 0 0-9.7-24.7-23.5-31 0 0-19.4-13.3 1.3-13 0 0 21.1 1.7 32.7 21.8 18.6 32.7 49.6 23.2 61.7 17.7 2-13.6 7.4-23 13.6-28.5-47.2-5.2-95.1-12.1-95.1-93.6 0-23.2 6.5-35 20-49.9-2.2-5.5-9.4-28.2 2.2-57.5 17.7-5.5 58.4 22.9 58.4 22.9 17-4.8 35.2-7.2 53.2-7.2s36.3 2.4 53.2 7.2c0 0 40.7-28.4 58.4-22.9 11.6 29.3 4.4 52 2.2 57.5 13.6 15 21.8 26.7 21.8 49.9 0 81.8-49.9 88.2-97.2 93.6 7.8 6.7 14.4 19.4 14.4 39.3 0 28.5-.3 63.8-.3 70.8 0 5.5 3.9 12.2 14.6 10.2 84.9-28 142.3-108.4 142.3-202.3 0-117.6-95.2-206.8-212.7-206.8zm-125 292.1c-1.1.8-.8 2.8.6 4.4 1.3 1.3 3.3 2 4.4.8 1.1-.8.8-2.8-.6-4.4-1.4-1.3-3.3-1.9-4.4-.8zm-9.2-6.9c-.6 1.1.3 2.4 2 3.3 1.3.8 3.1.6 3.7-.6.6-1.1-.3-2.4-2-3.3-1.7-.5-3-.2-3.7.6zm27.5 30.2c-1.3 1.1-.8 3.7 1.1 5.2 2 2 4.4 2.2 5.5.8 1.1-1.1.6-3.7-1.1-5.2-1.8-1.9-4.4-2.2-5.5-.8zm-9.7-12.4c-1.3.8-1.3 3.1 0 5 1.3 2 3.7 2.8 4.8 2 1.3-1.1 1.3-3.3 0-5.2-1.2-2.1-3.4-3-4.8-1.8z" fill="#aeb8ca"/></svg>