<svg enable-background="new 0 0 24 24" viewBox="0 0 24 24" xmlns="http://www.w3.org/2000/svg"><path d="m12 22.5c4.8 0 9-3.2 10.2-7.9m-10.2 7.9c-4.8 0-9-3.2-10.2-7.9m10.2 7.9c2.9 0 5.2-4.7 5.2-10.5s-2.3-10.5-5.2-10.5m0 21c-2.9 0-5.2-4.7-5.2-10.5s2.3-10.5 5.2-10.5m0 0c3.8 0 7.3 2 9.2 5.3m-9.2-5.3c-3.8 0-7.3 2-9.2 5.3m18.4 0c-2.5 2.2-5.8 3.4-9.2 3.4-3.5 0-6.7-1.3-9.2-3.4m18.4 0c.9 1.6 1.4 3.3 1.3 5.2 0 .9-.1 1.8-.3 2.6m0 0c-3.1 1.7-6.6 2.6-10.2 2.6-3.7 0-7.2-1-10.2-2.6m-0 0c-.2-.9-.3-1.7-.3-2.6 0-1.9.5-3.6 1.3-5.2" fill="none" stroke="#aeb8c9" stroke-linecap="round" stroke-linejoin="round" stroke-width="1.5"/></svg>